<svg width="1277" height="131" viewBox="0 0 1277 131" fill="none" xmlns="http://www.w3.org/2000/svg">
<path d="M69.8945 33.9609V44.2734H55.6562L53.5469 61.0898H66.5547V71.4023H52.2578L48.8008 99.4102L38.4883 98.0625L41.8281 71.4023H24.4258L20.9102 99.4102L10.4805 98.0625L13.8203 71.168H0.460938V61.0898H15.2852L17.3945 44.2734H3.85938V33.9609H18.6836L21.9062 7.71094L32.1602 9.05859L29.0547 33.9609H46.3398L49.6211 7.71094L59.875 9.05859L56.7695 33.9609H69.8945ZM45.0508 44.2734H27.8242L25.7148 61.0898H43.0586L45.0508 44.2734ZM135.578 97.6523C135.578 100.348 135.48 102.711 135.285 104.742C135.129 106.812 134.895 108.629 134.582 110.191C133.645 114.488 131.809 118.18 129.074 121.266C123.918 127.203 116.828 130.172 107.805 130.172C100.188 130.172 93.918 128.121 88.9961 124.02C83.918 119.801 80.9883 113.961 80.207 106.5H93.4492C93.957 109.312 94.7969 111.48 95.9688 113.004C98.7031 116.559 102.688 118.336 107.922 118.336C117.57 118.336 122.395 112.418 122.395 100.582V92.6133C117.16 97.9648 111.125 100.641 104.289 100.641C96.5156 100.641 90.1484 97.8281 85.1875 92.2031C80.1875 86.5 77.6875 79.3711 77.6875 70.8164C77.6875 62.4961 80.0117 55.4258 84.6602 49.6055C89.6602 43.4336 96.2617 40.3477 104.465 40.3477C111.652 40.3477 117.629 43.0234 122.395 48.375V41.9297H135.578V97.6523ZM122.922 70.582C122.922 65.0352 121.438 60.6016 118.469 57.2812C115.461 53.8828 111.613 52.1836 106.926 52.1836C101.926 52.1836 97.9805 54.0391 95.0898 57.75C92.4727 61.0703 91.1641 65.3672 91.1641 70.6406C91.1641 75.8359 92.4727 80.0938 95.0898 83.4141C97.9414 87.0469 101.887 88.8633 106.926 88.8633C111.965 88.8633 115.949 87.0273 118.879 83.3555C121.574 80.0352 122.922 75.7773 122.922 70.582ZM165.402 41.9297V74.6836C165.402 84.1367 169.133 88.8633 176.594 88.8633C184.055 88.8633 187.785 84.1367 187.785 74.6836V41.9297H200.969V74.9766C200.969 79.5469 200.402 83.4922 199.27 86.8125C198.176 89.7812 196.281 92.457 193.586 94.8398C189.133 98.707 183.469 100.641 176.594 100.641C169.758 100.641 164.113 98.707 159.66 94.8398C156.926 92.457 154.992 89.7812 153.859 86.8125C152.766 84.1562 152.219 80.2109 152.219 74.9766V41.9297H165.402ZM217.609 41.9297H230.852V47.2031C235.461 42.6328 240.656 40.3477 246.438 40.3477C253.078 40.3477 258.254 42.4375 261.965 46.6172C265.168 50.1719 266.77 55.9727 266.77 64.0195V99H253.527V67.125C253.527 61.5 252.746 57.6133 251.184 55.4648C249.66 53.2773 246.887 52.1836 242.863 52.1836C238.488 52.1836 235.383 53.6289 233.547 56.5195C231.75 59.3711 230.852 64.3516 230.852 71.4609V99H217.609V41.9297ZM297.062 54.2344V99H283.879V54.2344H278.254V41.9297H283.879V21.0117H297.062V41.9297H307.316V54.2344H297.062ZM318.742 0.0351562H331.926V46.6758C336.613 42.457 341.789 40.3477 347.453 40.3477C353.898 40.3477 359.055 42.4375 362.922 46.6172C366.203 50.25 367.844 56.0508 367.844 64.0195V99H354.66V65.25C354.66 60.6797 353.84 57.3789 352.199 55.3477C350.598 53.2773 348 52.2422 344.406 52.2422C339.797 52.2422 336.555 53.668 334.68 56.5195C332.844 59.4102 331.926 64.3711 331.926 71.4023V99H318.742V0.0351562ZM436.574 73.5703H395.676C396.027 78.2578 397.551 81.9883 400.246 84.7617C402.941 87.4961 406.398 88.8633 410.617 88.8633C413.898 88.8633 416.613 88.082 418.762 86.5195C420.871 84.957 423.273 82.0664 425.969 77.8477L437.102 84.0586C435.383 86.9883 433.566 89.5078 431.652 91.6172C429.738 93.6875 427.688 95.4062 425.5 96.7734C423.312 98.1016 420.949 99.0781 418.41 99.7031C415.871 100.328 413.117 100.641 410.148 100.641C401.633 100.641 394.797 97.9062 389.641 92.4375C384.484 86.9297 381.906 79.625 381.906 70.5234C381.906 61.5 384.406 54.1953 389.406 48.6094C394.445 43.1016 401.125 40.3477 409.445 40.3477C417.844 40.3477 424.484 43.0234 429.367 48.375C434.211 53.6875 436.633 61.0508 436.633 70.4648L436.574 73.5703ZM423.039 62.7891C421.203 55.7578 416.77 52.2422 409.738 52.2422C408.137 52.2422 406.633 52.4961 405.227 53.0039C403.82 53.4727 402.531 54.1758 401.359 55.1133C400.227 56.0117 399.25 57.1055 398.43 58.3945C397.609 59.6836 396.984 61.1484 396.555 62.7891H423.039ZM451.047 41.9297H464.23V47.0273C466.652 44.4883 468.801 42.75 470.676 41.8125C472.59 40.8359 474.855 40.3477 477.473 40.3477C480.949 40.3477 484.582 41.4805 488.371 43.7461L482.336 55.8164C479.836 54.0195 477.395 53.1211 475.012 53.1211C467.824 53.1211 464.23 58.5508 464.23 69.4102V99H451.047V41.9297ZM513.859 54.2344V99H500.676V54.2344H495.051V41.9297H500.676V21.0117H513.859V41.9297H524.113V54.2344H513.859ZM535.539 0.0351562H548.723V46.6758C553.41 42.457 558.586 40.3477 564.25 40.3477C570.695 40.3477 575.852 42.4375 579.719 46.6172C583 50.25 584.641 56.0508 584.641 64.0195V99H571.457V65.25C571.457 60.6797 570.637 57.3789 568.996 55.3477C567.395 53.2773 564.797 52.2422 561.203 52.2422C556.594 52.2422 553.352 53.668 551.477 56.5195C549.641 59.4102 548.723 64.3711 548.723 71.4023V99H535.539V0.0351562ZM653.371 73.5703H612.473C612.824 78.2578 614.348 81.9883 617.043 84.7617C619.738 87.4961 623.195 88.8633 627.414 88.8633C630.695 88.8633 633.41 88.082 635.559 86.5195C637.668 84.957 640.07 82.0664 642.766 77.8477L653.898 84.0586C652.18 86.9883 650.363 89.5078 648.449 91.6172C646.535 93.6875 644.484 95.4062 642.297 96.7734C640.109 98.1016 637.746 99.0781 635.207 99.7031C632.668 100.328 629.914 100.641 626.945 100.641C618.43 100.641 611.594 97.9062 606.438 92.4375C601.281 86.9297 598.703 79.625 598.703 70.5234C598.703 61.5 601.203 54.1953 606.203 48.6094C611.242 43.1016 617.922 40.3477 626.242 40.3477C634.641 40.3477 641.281 43.0234 646.164 48.375C651.008 53.6875 653.43 61.0508 653.43 70.4648L653.371 73.5703ZM639.836 62.7891C638 55.7578 633.566 52.2422 626.535 52.2422C624.934 52.2422 623.43 52.4961 622.023 53.0039C620.617 53.4727 619.328 54.1758 618.156 55.1133C617.023 56.0117 616.047 57.1055 615.227 58.3945C614.406 59.6836 613.781 61.1484 613.352 62.7891H639.836ZM673.117 41.9297L688.059 74.5078L704.172 36.7148L720.402 74.5078L735.168 41.9297H749.934L720.051 103.277L704.172 66.5391L688.117 103.277L658.293 41.9297H673.117ZM753.977 70.0547C753.977 61.8125 756.926 54.8008 762.824 49.0195C768.723 43.2383 775.91 40.3477 784.387 40.3477C792.902 40.3477 800.129 43.2578 806.066 49.0781C811.926 54.8984 814.855 62.0469 814.855 70.5234C814.855 79.0781 811.906 86.2461 806.008 92.0273C800.07 97.7695 792.785 100.641 784.152 100.641C775.598 100.641 768.43 97.7109 762.648 91.8516C756.867 86.0703 753.977 78.8047 753.977 70.0547ZM767.453 70.2891C767.453 75.9922 768.977 80.5039 772.023 83.8242C775.148 87.1836 779.27 88.8633 784.387 88.8633C789.543 88.8633 793.664 87.2031 796.75 83.8828C799.836 80.5625 801.379 76.1289 801.379 70.582C801.379 65.0352 799.836 60.6016 796.75 57.2812C793.625 53.9219 789.504 52.2422 784.387 52.2422C779.348 52.2422 775.266 53.9219 772.141 57.2812C769.016 60.6406 767.453 64.9766 767.453 70.2891ZM828.859 41.9297H842.102V47.2031C846.711 42.6328 851.906 40.3477 857.688 40.3477C864.328 40.3477 869.504 42.4375 873.215 46.6172C876.418 50.1719 878.02 55.9727 878.02 64.0195V99H864.777V67.125C864.777 61.5 863.996 57.6133 862.434 55.4648C860.91 53.2773 858.137 52.1836 854.113 52.1836C849.738 52.1836 846.633 53.6289 844.797 56.5195C843 59.3711 842.102 64.3516 842.102 71.4609V99H828.859V41.9297ZM936.789 0.0351562H950.031V99H936.789V93.0234C931.594 98.1016 925.715 100.641 919.152 100.641C911.34 100.641 904.855 97.7891 899.699 92.0859C894.582 86.2656 892.023 79 892.023 70.2891C892.023 61.7734 894.582 54.6641 899.699 48.9609C904.777 43.2188 911.164 40.3477 918.859 40.3477C925.539 40.3477 931.516 43.082 936.789 48.5508V0.0351562ZM905.5 70.2891C905.5 75.7578 906.965 80.2109 909.895 83.6484C912.902 87.125 916.691 88.8633 921.262 88.8633C926.145 88.8633 930.09 87.1836 933.098 83.8242C936.105 80.3477 937.609 75.9336 937.609 70.582C937.609 65.2305 936.105 60.8164 933.098 57.3398C930.09 53.9414 926.184 52.2422 921.379 52.2422C916.848 52.2422 913.059 53.9609 910.012 57.3984C907.004 60.875 905.5 65.1719 905.5 70.2891ZM1018.64 73.5703H977.746C978.098 78.2578 979.621 81.9883 982.316 84.7617C985.012 87.4961 988.469 88.8633 992.688 88.8633C995.969 88.8633 998.684 88.082 1000.83 86.5195C1002.94 84.957 1005.34 82.0664 1008.04 77.8477L1019.17 84.0586C1017.45 86.9883 1015.64 89.5078 1013.72 91.6172C1011.81 93.6875 1009.76 95.4062 1007.57 96.7734C1005.38 98.1016 1003.02 99.0781 1000.48 99.7031C997.941 100.328 995.188 100.641 992.219 100.641C983.703 100.641 976.867 97.9062 971.711 92.4375C966.555 86.9297 963.977 79.625 963.977 70.5234C963.977 61.5 966.477 54.1953 971.477 48.6094C976.516 43.1016 983.195 40.3477 991.516 40.3477C999.914 40.3477 1006.55 43.0234 1011.44 48.375C1016.28 53.6875 1018.7 61.0508 1018.7 70.4648L1018.64 73.5703ZM1005.11 62.7891C1003.27 55.7578 998.84 52.2422 991.809 52.2422C990.207 52.2422 988.703 52.4961 987.297 53.0039C985.891 53.4727 984.602 54.1758 983.43 55.1133C982.297 56.0117 981.32 57.1055 980.5 58.3945C979.68 59.6836 979.055 61.1484 978.625 62.7891H1005.11ZM1033.12 41.9297H1046.3V47.0273C1048.72 44.4883 1050.87 42.75 1052.75 41.8125C1054.66 40.8359 1056.93 40.3477 1059.54 40.3477C1063.02 40.3477 1066.65 41.4805 1070.44 43.7461L1064.41 55.8164C1061.91 54.0195 1059.46 53.1211 1057.08 53.1211C1049.89 53.1211 1046.3 58.5508 1046.3 69.4102V99H1033.12V41.9297ZM1119.25 0.0351562H1132.49V99H1119.25V93.0234C1114.05 98.1016 1108.18 100.641 1101.61 100.641C1093.8 100.641 1087.32 97.7891 1082.16 92.0859C1077.04 86.2656 1074.48 79 1074.48 70.2891C1074.48 61.7734 1077.04 54.6641 1082.16 48.9609C1087.24 43.2188 1093.62 40.3477 1101.32 40.3477C1108 40.3477 1113.98 43.082 1119.25 48.5508V0.0351562ZM1087.96 70.2891C1087.96 75.7578 1089.43 80.2109 1092.36 83.6484C1095.36 87.125 1099.15 88.8633 1103.72 88.8633C1108.61 88.8633 1112.55 87.1836 1115.56 83.8242C1118.57 80.3477 1120.07 75.9336 1120.07 70.582C1120.07 65.2305 1118.57 60.8164 1115.56 57.3398C1112.55 53.9414 1108.64 52.2422 1103.84 52.2422C1099.31 52.2422 1095.52 53.9609 1092.47 57.3984C1089.46 60.875 1087.96 65.1719 1087.96 70.2891ZM1146.44 70.0547C1146.44 61.8125 1149.39 54.8008 1155.29 49.0195C1161.18 43.2383 1168.37 40.3477 1176.85 40.3477C1185.36 40.3477 1192.59 43.2578 1198.53 49.0781C1204.39 54.8984 1207.32 62.0469 1207.32 70.5234C1207.32 79.0781 1204.37 86.2461 1198.47 92.0273C1192.53 97.7695 1185.25 100.641 1176.61 100.641C1168.06 100.641 1160.89 97.7109 1155.11 91.8516C1149.33 86.0703 1146.44 78.8047 1146.44 70.0547ZM1159.91 70.2891C1159.91 75.9922 1161.44 80.5039 1164.48 83.8242C1167.61 87.1836 1171.73 88.8633 1176.85 88.8633C1182 88.8633 1186.12 87.2031 1189.21 83.8828C1192.3 80.5625 1193.84 76.1289 1193.84 70.582C1193.84 65.0352 1192.3 60.6016 1189.21 57.2812C1186.09 53.9219 1181.96 52.2422 1176.85 52.2422C1171.81 52.2422 1167.73 53.9219 1164.6 57.2812C1161.48 60.6406 1159.91 64.9766 1159.91 70.2891ZM1276.52 97.6523C1276.52 100.348 1276.42 102.711 1276.22 104.742C1276.07 106.812 1275.83 108.629 1275.52 110.191C1274.58 114.488 1272.75 118.18 1270.01 121.266C1264.86 127.203 1257.77 130.172 1248.74 130.172C1241.12 130.172 1234.86 128.121 1229.93 124.02C1224.86 119.801 1221.93 113.961 1221.14 106.5H1234.39C1234.89 109.312 1235.73 111.48 1236.91 113.004C1239.64 116.559 1243.62 118.336 1248.86 118.336C1258.51 118.336 1263.33 112.418 1263.33 100.582V92.6133C1258.1 97.9648 1252.06 100.641 1245.23 100.641C1237.45 100.641 1231.09 97.8281 1226.12 92.2031C1221.12 86.5 1218.62 79.3711 1218.62 70.8164C1218.62 62.4961 1220.95 55.4258 1225.6 49.6055C1230.6 43.4336 1237.2 40.3477 1245.4 40.3477C1252.59 40.3477 1258.57 43.0234 1263.33 48.375V41.9297H1276.52V97.6523ZM1263.86 70.582C1263.86 65.0352 1262.38 60.6016 1259.41 57.2812C1256.4 53.8828 1252.55 52.1836 1247.86 52.1836C1242.86 52.1836 1238.92 54.0391 1236.03 57.75C1233.41 61.0703 1232.1 65.3672 1232.1 70.6406C1232.1 75.8359 1233.41 80.0938 1236.03 83.4141C1238.88 87.0469 1242.82 88.8633 1247.86 88.8633C1252.9 88.8633 1256.89 87.0273 1259.82 83.3555C1262.51 80.0352 1263.86 75.7773 1263.86 70.582Z" fill="#333333"/>
</svg>
