<svg width="150" height="150" viewBox="0 0 150 150" fill="none" xmlns="http://www.w3.org/2000/svg">
<path fill-rule="evenodd" clip-rule="evenodd" d="M76 149.993C75.6672 149.998 75.3338 150 75 150C33.5786 150 0 116.421 0 75C0 33.5786 33.5786 0 75 0C116.421 0 150 33.5786 150 75H125C125 47.3858 102.614 25 75 25C47.3858 25 25 47.3858 25 75C25 102.614 47.3858 125 75 125C75.3341 125 75.6674 124.997 76 124.99V149.993Z" fill="#8170B0"/>
<circle cx="137.5" cy="75.5" r="12.5" fill="#8170B0"/>
<circle cx="75.5" cy="137.5" r="12.5" fill="#8170B0"/>
</svg>
